<svg width="63" height="62" viewBox="0 0 63 62" fill="none" xmlns="http://www.w3.org/2000/svg">
<rect width="63" height="62" rx="6" fill="#398DDB"/>
<path d="M31.4628 22.2051C26.608 22.2051 22.668 26.1451 22.668 30.9999C22.668 35.8546 26.608 39.7947 31.4628 39.7947H35.8602V38.0357H31.4628C27.6458 38.0357 24.4269 34.8168 24.4269 30.9999C24.4269 27.1829 27.6458 23.964 31.4628 23.964C35.2797 23.964 38.4986 27.1829 38.4986 30.9999V32.2575C38.4986 32.9523 37.8742 33.6383 37.1794 33.6383C36.4846 33.6383 35.8602 32.9523 35.8602 32.2575V30.9999C35.8602 28.5725 33.8901 26.6025 31.4628 26.6025C29.0354 26.6025 27.0654 28.5725 27.0654 30.9999C27.0654 33.4272 29.0354 35.3973 31.4628 35.3973C32.6764 35.3973 33.7846 34.9048 34.5761 34.1044C35.1478 34.8872 36.1328 35.3973 37.1794 35.3973C38.9119 35.3973 40.2575 33.9901 40.2575 32.2575V30.9999C40.2575 26.1451 36.3175 22.2051 31.4628 22.2051ZM31.4628 33.6383C30.0028 33.6383 28.8243 32.4598 28.8243 30.9999C28.8243 29.5399 30.0028 28.3614 31.4628 28.3614C32.9227 28.3614 34.1012 29.5399 34.1012 30.9999C34.1012 32.4598 32.9227 33.6383 31.4628 33.6383Z" fill="white"/>
</svg>
