<svg width="63" height="62" viewBox="0 0 63 62" fill="none" xmlns="http://www.w3.org/2000/svg">
<rect width="63" height="62" rx="6" fill="#D87D3D"/>
<path d="M31.7892 31.2999C29.3047 31.2999 27.2396 29.2366 27.2396 26.7951C27.2396 24.2692 29.3047 22.2051 31.7901 22.2051C34.36 22.2051 36.3397 24.2684 36.3397 26.7951C36.3353 27.9939 35.8551 29.1419 35.0046 29.9868C34.1541 30.8316 33.003 31.3043 31.8042 31.3008L31.7892 31.2999ZM31.7892 24.8585C30.7374 24.8585 29.937 25.7424 29.937 26.796C29.937 27.8479 30.7374 28.6482 31.7901 28.6482C32.8851 28.6482 33.6432 27.8479 33.6432 26.796C33.6441 25.7415 32.8851 24.8585 31.7892 24.8585ZM33.601 35.0483L36.1717 37.5328C36.6774 38.079 36.6774 38.8793 36.1717 39.385C35.6247 39.9312 34.7812 39.9312 34.36 39.385L31.7901 36.8583L29.3047 39.385C29.0523 39.6374 28.7145 39.7632 28.3346 39.7632C28.04 39.7632 27.7031 39.6366 27.4076 39.385C26.9019 38.8793 26.9019 38.079 27.4076 37.5319L30.0197 35.0474C29.0764 34.7681 28.1715 34.3725 27.3258 33.8698C26.6935 33.5329 26.5677 32.6912 26.9045 32.0589C27.3258 31.4274 28.0839 31.2594 28.7585 31.6807C29.6719 32.2381 30.7213 32.533 31.7914 32.533C32.8615 32.533 33.9109 32.2381 34.8243 31.6807C35.4989 31.2594 36.2984 31.4274 36.6774 32.0589C37.0574 32.6912 36.8876 33.532 36.2975 33.8698C35.498 34.3755 34.5711 34.7545 33.6019 35.0491L33.601 35.0483Z" fill="white"/>
</svg>
