<svg width="63" height="62" viewBox="0 0 63 62" fill="none" xmlns="http://www.w3.org/2000/svg">
<rect width="63" height="62" rx="6" fill="#5081BD"/>
<path d="M40.0525 26.4378C40.1754 26.0255 40.0525 25.7231 39.4714 25.7231H37.5464C37.0566 25.7231 36.8328 25.9847 36.7099 26.272C36.7099 26.272 35.7311 28.683 34.3442 30.2463C33.8965 30.7012 33.692 30.8448 33.448 30.8448C33.326 30.8448 33.1487 30.7012 33.1487 30.2889V26.4378C33.1487 25.9431 33.0073 25.7231 32.5992 25.7231H29.5743C29.2688 25.7231 29.0845 25.9519 29.0845 26.1701C29.0845 26.6382 29.7779 26.7464 29.849 28.0659V30.9282C29.849 31.5551 29.7376 31.6695 29.4918 31.6695C28.8396 31.6695 27.2525 29.2496 26.3107 26.4795C26.1272 25.9413 25.942 25.724 25.4504 25.724H23.5263C22.9759 25.724 22.8662 25.9856 22.8662 26.2729C22.8662 26.789 23.5184 29.3427 25.9042 32.7203C27.4948 35.0266 29.7341 36.2769 31.774 36.2769C32.9968 36.2769 33.1478 35.9993 33.1478 35.5205V33.7772C33.1478 33.2221 33.2645 33.1104 33.6516 33.1104C33.936 33.1104 34.4258 33.2558 35.5679 34.3669C36.8723 35.6846 37.0882 36.276 37.8211 36.276H39.7453C40.2948 36.276 40.5695 35.9985 40.4115 35.4505C40.2386 34.9051 39.6154 34.1115 38.7885 33.1725C38.339 32.6369 37.6675 32.0605 37.463 31.7724C37.1777 31.4008 37.2602 31.2368 37.463 30.9069C37.4639 30.9078 39.8085 27.572 40.0525 26.4378Z" fill="white"/>
</svg>
