<svg width="63" height="62" viewBox="0 0 63 62" fill="none" xmlns="http://www.w3.org/2000/svg">
<rect width="63" height="62" rx="6" fill="#EC3223"/>
<path d="M35.3994 22.2051H32.917C30.478 22.2051 28.5321 24.1986 28.5321 28.0683C28.5321 30.3901 29.4112 32.1021 31.1965 32.9464L27.8648 39.4194C27.7561 39.6312 27.8648 39.7947 28.0389 39.7947H29.5847C29.7154 39.7947 29.8028 39.7477 29.8462 39.6312L32.9739 33.1986H33.8622L33.8565 39.6312C33.8565 39.7016 33.9219 39.7947 34.0086 39.7947H35.4648C35.5955 39.7947 35.6389 39.7243 35.6389 39.6078V22.4396C35.6389 22.2754 35.5515 22.2051 35.3994 22.2051ZM33.8622 31.7328H32.7962C31.7302 31.7328 30.3088 30.8826 30.3088 28.0683C30.3088 25.1359 31.4679 23.6709 32.7962 23.6709H33.8622V31.7328Z" fill="white"/>
</svg>
